<svg width="24" height="24" viewBox="0 0 24 24" fill="none" xmlns="http://www.w3.org/2000/svg">
<path d="M7.07106 11.8111C7.07106 11.8111 11.3447 9.99296 12.8268 9.35276C13.395 9.09668 15.3218 8.27721 15.3218 8.27721C15.3218 8.27721 16.2111 7.91873 16.137 8.78939C16.1192 9.04827 16.0112 9.77459 15.8781 10.6694C15.8269 11.0136 15.772 11.3828 15.7171 11.7599C15.4206 13.6805 15.0995 15.7803 15.0995 15.7803C15.0995 15.7803 15.0501 16.3693 14.6301 16.4717C14.2102 16.5742 13.5185 16.1132 13.395 16.0108C13.3736 15.9941 13.2742 15.9268 13.1252 15.8259C12.5874 15.4616 11.4029 14.6594 10.9 14.2182C10.7271 14.0646 10.5295 13.7573 10.9247 13.3988C11.814 12.5537 12.8762 11.5038 13.5185 10.838C13.8149 10.5307 14.1114 9.81368 12.8762 10.6843C11.1223 11.9391 9.39313 13.1171 9.39313 13.1171C9.39313 13.1171 8.99789 13.3732 8.25679 13.1427C7.51566 12.9122 6.65106 12.6049 6.65106 12.6049C6.65106 12.6049 6.05823 12.2208 7.07106 11.8111Z" fill="#272727"/>
<path fill-rule="evenodd" clip-rule="evenodd" d="M12 20.6275C16.7648 20.6275 20.6275 16.7648 20.6275 12C20.6275 7.2352 16.7648 3.37256 12 3.37256C7.2352 3.37256 3.37256 7.2352 3.37256 12C3.37256 16.7648 7.2352 20.6275 12 20.6275ZM12.8268 9.35273C11.3446 9.99293 7.07102 11.8111 7.07102 11.8111C6.05819 12.2208 6.65102 12.6049 6.65102 12.6049C6.65102 12.6049 7.51562 12.9122 8.25675 13.1427C8.99784 13.3731 9.39309 13.1171 9.39309 13.1171C9.39309 13.1171 11.1223 11.9391 12.8762 10.6843C14.1113 9.81365 13.8149 10.5307 13.5185 10.838C12.8762 11.5038 11.814 12.5537 10.9246 13.3988C10.5294 13.7573 10.727 14.0646 10.9 14.2182C11.4029 14.6593 12.5874 15.4616 13.1251 15.8259C13.2742 15.9268 13.3735 15.9941 13.395 16.0107C13.5185 16.1132 14.2102 16.5741 14.6301 16.4717C15.05 16.3693 15.0995 15.7803 15.0995 15.7803C15.0995 15.7803 15.4206 13.6805 15.7171 11.7599C15.7719 11.3828 15.8269 11.0136 15.878 10.6693C16.0111 9.77456 16.1191 9.04824 16.137 8.78936C16.2111 7.9187 15.3218 8.27718 15.3218 8.27718C15.3218 8.27718 13.395 9.09665 12.8268 9.35273Z" fill="#272727"/>
<path d="M12.0001 11.6243L16.0359 9.03164C15.8736 8.90993 15.6766 8.84352 15.4738 8.84216H8.5264C8.32357 8.84352 8.12655 8.90993 7.96429 9.03164L12.0001 11.6243Z" fill="white"/>
<path d="M12.1705 12.2653L12.1168 12.2905H12.0916C12.0625 12.3035 12.0316 12.312 12 12.3158C11.9738 12.3191 11.9472 12.3191 11.921 12.3158H11.8958L11.8421 12.2905L7.6105 9.55579C7.59029 9.63205 7.57968 9.71056 7.57892 9.78947V14.2105C7.57892 14.4618 7.67874 14.7027 7.8564 14.8804C8.03407 15.0581 8.27504 15.1579 8.52629 15.1579H15.4737C15.7249 15.1579 15.9659 15.0581 16.1435 14.8804C16.3212 14.7027 16.421 14.4618 16.421 14.2105V9.78947C16.4203 9.71056 16.4097 9.63205 16.3894 9.55579L12.1705 12.2653Z" fill="white"/>
</svg>
