<svg width="24" height="24" viewBox="0 0 24 24" fill="none" xmlns="http://www.w3.org/2000/svg">
<path fill-rule="evenodd" clip-rule="evenodd" d="M20.7286 12.1011C20.7286 16.8659 16.866 20.7286 12.1012 20.7286C7.33635 20.7286 3.47369 16.8659 3.47369 12.1011C3.47369 7.33629 7.33635 3.47363 12.1012 3.47363C16.866 3.47363 20.7286 7.33629 20.7286 12.1011ZM12.9279 9.4538C11.4458 10.094 7.17215 11.9121 7.17215 11.9121C6.15934 12.3219 6.75217 12.706 6.75217 12.706C6.75217 12.706 7.61678 13.0133 8.35789 13.2437C9.09897 13.4742 9.49423 13.2182 9.49423 13.2182C9.49423 13.2182 11.2234 12.0402 12.9773 10.7854C14.2125 9.91475 13.916 10.6318 13.6196 10.9391C12.9773 11.6049 11.9151 12.6548 11.0258 13.4998C10.6306 13.8584 10.8282 14.1656 11.0011 14.3193C11.504 14.7604 12.6885 15.5627 13.2263 15.9269C13.3753 16.0279 13.4747 16.0952 13.4961 16.1118C13.6196 16.2143 14.3113 16.6752 14.7312 16.5728C15.1512 16.4704 15.2006 15.8814 15.2006 15.8814C15.2006 15.8814 15.5217 13.7815 15.8182 11.8609C15.8731 11.4838 15.928 11.1147 15.9792 10.7704C16.1123 9.87565 16.2203 9.14934 16.2381 8.89042C16.3122 8.01977 15.4229 8.37826 15.4229 8.37826C15.4229 8.37826 13.4961 9.19773 12.9279 9.4538Z" fill="#272727"/>
</svg>
