<svg width="24" height="24" viewBox="0 0 24 24" fill="none" xmlns="http://www.w3.org/2000/svg">
<path fill-rule="evenodd" clip-rule="evenodd" d="M8.56536 17.1854L8.8285 17.3411C10.0275 18.05 11.4278 18.3433 12.8114 18.1754C14.1949 18.0075 15.4839 17.3878 16.4775 16.4129C17.4711 15.438 18.1135 14.1626 18.3045 12.7856C18.4956 11.4085 18.2245 10.007 17.5337 8.79965C16.8428 7.59225 15.771 6.64671 14.4851 6.11038C13.1993 5.57405 11.7717 5.47706 10.4248 5.83452C9.0779 6.19199 7.88739 6.98382 7.03878 8.08663C6.19018 9.18944 5.73114 10.5413 5.73321 11.9315C5.73208 13.0842 6.05169 14.2146 6.65645 15.1968L6.82147 15.4682L6.18814 17.8171L8.56536 17.1854ZM14.4239 12.7567C14.6172 12.8007 14.7978 12.888 14.9521 13.0121C15.2553 13.1901 15.7504 13.408 15.8307 13.7773C15.8642 13.9579 15.8408 14.1443 15.7638 14.3111C15.6327 14.5873 15.4357 14.827 15.1899 15.0093C14.9441 15.1916 14.6572 15.3109 14.3544 15.3566C13.8229 15.4167 13.285 15.3322 12.7978 15.1119C12.3289 14.9517 11.8799 14.7383 11.4598 14.4757C10.6227 13.9591 9.89413 13.2853 9.31453 12.4916C9.13618 12.25 8.97092 11.999 8.81946 11.7398C8.60953 11.4013 8.45026 11.0342 8.34669 10.6498C8.30591 10.4899 8.28494 10.3255 8.28425 10.1605C8.27402 9.86656 8.33001 9.57409 8.44811 9.30462C8.56621 9.03515 8.7434 8.79553 8.96664 8.60342C9.09523 8.48927 9.25419 8.41467 9.42434 8.38862C9.59449 8.36257 9.76856 8.38618 9.92556 8.45661C10.2299 8.71314 10.4544 9.05121 10.5723 9.43088C10.7248 9.7017 10.796 10.0106 10.7774 10.3206C10.6937 10.6017 10.5403 10.8573 10.3314 11.0636C10.2717 11.1145 10.2342 11.1866 10.2267 11.2646C10.2192 11.3426 10.2424 11.4204 10.2913 11.4817C10.8647 12.4644 11.7543 13.2247 12.8157 13.6394C12.8747 13.6716 12.9436 13.6813 13.0093 13.6666C13.0749 13.6518 13.133 13.6137 13.1725 13.5593C13.3598 13.3324 13.5471 12.8786 13.837 12.7585C14.03 12.7134 14.2307 12.7128 14.4239 12.7567Z" fill="#272727"/>
<path fill-rule="evenodd" clip-rule="evenodd" d="M4.10529 19.8947L5.23814 15.6862C4.32452 14.0468 4.03426 12.1337 4.42061 10.298C4.80696 8.46238 5.84402 6.82725 7.34148 5.69271C8.83894 4.55817 10.6964 4.00032 12.5729 4.12152C14.4494 4.24273 16.2192 5.03485 17.5575 6.35255C18.8957 7.67025 19.7127 9.42512 19.8585 11.2952C20.0043 13.1652 19.4691 15.0249 18.3511 16.5332C17.2332 18.0414 15.6074 19.0968 13.7722 19.5059C11.937 19.915 10.0155 19.6503 8.3602 18.7603L4.10529 19.8947ZM8.8285 17.3411L8.56536 17.1854L6.18814 17.8171L6.82147 15.4682L6.65645 15.1968C6.05169 14.2146 5.73208 13.0842 5.73321 11.9315C5.73114 10.5413 6.19018 9.18944 7.03878 8.08663C7.88739 6.98382 9.0779 6.19199 10.4248 5.83452C11.7717 5.47706 13.1993 5.57405 14.4851 6.11038C15.771 6.64671 16.8428 7.59225 17.5337 8.79965C18.2245 10.007 18.4956 11.4085 18.3045 12.7856C18.1135 14.1626 17.4711 15.438 16.4775 16.4129C15.4839 17.3878 14.1949 18.0075 12.8114 18.1754C11.4278 18.3433 10.0275 18.05 8.8285 17.3411Z" fill="#272727"/>
</svg>
